<?xml version="1.0" encoding="UTF-8" standalone="no"?>
<!DOCTYPE svg PUBLIC "-//W3C//DTD SVG 1.1//EN"
 "http://www.w3.org/Graphics/SVG/1.1/DTD/svg11.dtd">
<!-- Generated by graphviz version 2.43.0 (0)
 -->
<!-- Title: G Pages: 1 -->
<svg width="282pt" height="254pt"
 viewBox="0.00 0.00 282.14 254.48" xmlns="http://www.w3.org/2000/svg" xmlns:xlink="http://www.w3.org/1999/xlink">
<g id="graph0" class="graph" transform="scale(1 1) rotate(0) translate(4 250.48)">
<title>G</title>
<polygon fill="white" stroke="transparent" points="-4,4 -4,-250.48 278.14,-250.48 278.14,4 -4,4"/>
<!-- 0 -->
<g id="node1" class="node">
<title>0</title>
<ellipse fill="none" stroke="black" cx="150.05" cy="-24.04" rx="27" ry="24.08"/>
<text text-anchor="middle" x="150.05" y="-17.84" font-family="Times,serif" font-size="24.00">0</text>
</g>
<!-- 1 -->
<g id="node2" class="node">
<title>1</title>
<ellipse fill="none" stroke="black" cx="199.38" cy="-122.83" rx="27" ry="24.08"/>
<text text-anchor="middle" x="199.38" y="-116.63" font-family="Times,serif" font-size="24.00">1</text>
</g>
<!-- 0&#45;&#45;1 -->
<g id="edge1" class="edge">
<title>0&#45;&#45;1</title>
<path fill="none" stroke="black" d="M161.24,-46.46C169.37,-62.74 180.32,-84.66 188.4,-100.85"/>
</g>
<!-- 2 -->
<g id="node3" class="node">
<title>2</title>
<ellipse fill="none" stroke="black" cx="88.16" cy="-115.3" rx="27" ry="24.08"/>
<text text-anchor="middle" x="88.16" y="-109.1" font-family="Times,serif" font-size="24.00">2</text>
</g>
<!-- 0&#45;&#45;2 -->
<g id="edge2" class="edge">
<title>0&#45;&#45;2</title>
<path fill="none" stroke="black" d="M136,-44.75C125.87,-59.69 112.26,-79.76 102.15,-94.68"/>
</g>
<!-- 1&#45;&#45;2 -->
<g id="edge3" class="edge">
<title>1&#45;&#45;2</title>
<path fill="none" stroke="black" d="M172.46,-121.01C155.1,-119.84 132.6,-118.31 115.22,-117.14"/>
</g>
<!-- 3 -->
<g id="node4" class="node">
<title>3</title>
<ellipse fill="none" stroke="black" cx="247.14" cy="-222.44" rx="27" ry="24.08"/>
<text text-anchor="middle" x="247.14" y="-216.24" font-family="Times,serif" font-size="24.00">3</text>
</g>
<!-- 1&#45;&#45;3 -->
<g id="edge4" class="edge">
<title>1&#45;&#45;3</title>
<path fill="none" stroke="black" d="M210.22,-145.44C218.09,-161.85 228.68,-183.95 236.51,-200.27"/>
</g>
<!-- 4 -->
<g id="node5" class="node">
<title>4</title>
<ellipse fill="none" stroke="black" cx="137.08" cy="-215.38" rx="27" ry="24.08"/>
<text text-anchor="middle" x="137.08" y="-209.18" font-family="Times,serif" font-size="24.00">4</text>
</g>
<!-- 1&#45;&#45;4 -->
<g id="edge5" class="edge">
<title>1&#45;&#45;4</title>
<path fill="none" stroke="black" d="M185.24,-143.83C175.05,-158.98 161.34,-179.34 151.16,-194.46"/>
</g>
<!-- 2&#45;&#45;4 -->
<g id="edge7" class="edge">
<title>2&#45;&#45;4</title>
<path fill="none" stroke="black" d="M99.01,-137.51C107.12,-154.1 118.15,-176.66 126.25,-193.23"/>
</g>
<!-- 5 -->
<g id="node6" class="node">
<title>5</title>
<ellipse fill="none" stroke="black" cx="27" cy="-207" rx="27" ry="24.08"/>
<text text-anchor="middle" x="27" y="-200.8" font-family="Times,serif" font-size="24.00">5</text>
</g>
<!-- 2&#45;&#45;5 -->
<g id="edge8" class="edge">
<title>2&#45;&#45;5</title>
<path fill="none" stroke="black" d="M74.28,-136.11C64.27,-151.12 50.82,-171.29 40.82,-186.28"/>
</g>
<!-- 3&#45;&#45;4 -->
<g id="edge6" class="edge">
<title>3&#45;&#45;4</title>
<path fill="none" stroke="black" d="M219.93,-220.69C203,-219.61 181.3,-218.22 164.35,-217.13"/>
</g>
<!-- 4&#45;&#45;5 -->
<g id="edge9" class="edge">
<title>4&#45;&#45;5</title>
<path fill="none" stroke="black" d="M110.15,-213.33C93.09,-212.03 71.11,-210.36 54.03,-209.06"/>
</g>
</g>
</svg>
