<?xml version="1.0" encoding="UTF-8" standalone="no"?>
<!DOCTYPE svg PUBLIC "-//W3C//DTD SVG 1.1//EN"
 "http://www.w3.org/Graphics/SVG/1.1/DTD/svg11.dtd">
<!-- Generated by graphviz version 2.43.0 (0)
 -->
<!-- Title: G Pages: 1 -->
<svg width="282pt" height="254pt"
 viewBox="0.00 0.00 282.14 254.48" xmlns="http://www.w3.org/2000/svg" xmlns:xlink="http://www.w3.org/1999/xlink">
<g id="graph0" class="graph" transform="scale(1 1) rotate(0) translate(4 250.48)">
<title>G</title>
<polygon fill="white" stroke="transparent" points="-4,4 -4,-250.48 278.14,-250.48 278.14,4 -4,4"/>
<!-- 0 -->
<g id="node1" class="node">
<title>0</title>
<ellipse fill="none" stroke="black" cx="150.05" cy="-24.04" rx="27" ry="24.08"/>
<text text-anchor="middle" x="150.05" y="-17.84" font-family="Times,serif" font-size="24.00">0</text>
</g>
<!-- 1 -->
<g id="node2" class="node">
<title>1</title>
<ellipse fill="none" stroke="black" cx="199.38" cy="-122.83" rx="27" ry="24.08"/>
<text text-anchor="middle" x="199.38" y="-116.63" font-family="Times,serif" font-size="24.00">1</text>
</g>
<!-- 0&#45;&#45;1 -->
<g id="edge1" class="edge">
<title>0&#45;&#45;1</title>
<path fill="none" stroke="#0000ff" stroke-width="2" d="M161.24,-46.46C169.37,-62.74 180.32,-84.66 188.4,-100.85"/>
<text text-anchor="middle" x="169.82" y="-77.45" font-family="Times,serif" font-size="14.00">0</text>
</g>
<!-- 2 -->
<g id="node3" class="node">
<title>2</title>
<ellipse fill="none" stroke="black" cx="88.16" cy="-115.3" rx="27" ry="24.08"/>
<text text-anchor="middle" x="88.16" y="-109.1" font-family="Times,serif" font-size="24.00">2</text>
</g>
<!-- 0&#45;&#45;2 -->
<g id="edge3" class="edge">
<title>0&#45;&#45;2</title>
<path fill="none" stroke="#0000ff" stroke-width="2" d="M136,-44.75C125.87,-59.69 112.26,-79.76 102.15,-94.68"/>
<text text-anchor="middle" x="114.07" y="-73.51" font-family="Times,serif" font-size="14.00">0</text>
</g>
<!-- 1&#45;&#45;2 -->
<g id="edge2" class="edge">
<title>1&#45;&#45;2</title>
<path fill="none" stroke="#0000ff" stroke-width="2" d="M173.7,-115.26C156.06,-112.83 132.7,-111.24 114.85,-111.26"/>
<text text-anchor="middle" x="139.27" y="-102.06" font-family="Times,serif" font-size="14.00">0</text>
</g>
<!-- 1&#45;&#45;2 -->
<g id="edge4" class="edge">
<title>1&#45;&#45;2</title>
<path fill="none" stroke="#ff0081" stroke-width="2" d="M172.63,-126.88C154.81,-126.89 131.54,-125.31 113.93,-122.89"/>
<text text-anchor="middle" x="138.28" y="-128.68" font-family="Times,serif" font-size="14.00">1</text>
</g>
<!-- 3 -->
<g id="node4" class="node">
<title>3</title>
<ellipse fill="none" stroke="black" cx="247.14" cy="-222.44" rx="27" ry="24.08"/>
<text text-anchor="middle" x="247.14" y="-216.24" font-family="Times,serif" font-size="24.00">3</text>
</g>
<!-- 1&#45;&#45;3 -->
<g id="edge7" class="edge">
<title>1&#45;&#45;3</title>
<path fill="none" stroke="#00ff81" stroke-width="2" d="M210.22,-145.44C218.09,-161.85 228.68,-183.95 236.51,-200.27"/>
<text text-anchor="middle" x="218.36" y="-176.65" font-family="Times,serif" font-size="14.00">2</text>
</g>
<!-- 4 -->
<g id="node5" class="node">
<title>4</title>
<ellipse fill="none" stroke="black" cx="137.08" cy="-215.38" rx="27" ry="24.08"/>
<text text-anchor="middle" x="137.08" y="-209.18" font-family="Times,serif" font-size="24.00">4</text>
</g>
<!-- 1&#45;&#45;4 -->
<g id="edge6" class="edge">
<title>1&#45;&#45;4</title>
<path fill="none" stroke="#ff0081" stroke-width="2" d="M180.46,-140.62C168.93,-155.33 154.89,-176.25 145.82,-192.25"/>
<text text-anchor="middle" x="158.14" y="-170.23" font-family="Times,serif" font-size="14.00">1</text>
</g>
<!-- 1&#45;&#45;4 -->
<g id="edge9" class="edge">
<title>1&#45;&#45;4</title>
<path fill="none" stroke="#00ff81" stroke-width="2" d="M190.57,-146.09C181.43,-162.18 167.3,-183.21 155.76,-197.9"/>
<text text-anchor="middle" x="168.16" y="-175.79" font-family="Times,serif" font-size="14.00">2</text>
</g>
<!-- 2&#45;&#45;4 -->
<g id="edge5" class="edge">
<title>2&#45;&#45;4</title>
<path fill="none" stroke="#ff0081" stroke-width="2" d="M93.47,-139C100.29,-156.28 111.55,-179.38 121.07,-195.66"/>
<text text-anchor="middle" x="102.27" y="-171.13" font-family="Times,serif" font-size="14.00">1</text>
</g>
<!-- 2&#45;&#45;4 -->
<g id="edge10" class="edge">
<title>2&#45;&#45;4</title>
<path fill="none" stroke="#ffff00" stroke-width="2" d="M104.15,-135C113.69,-151.32 124.98,-174.49 131.81,-191.79"/>
<text text-anchor="middle" x="112.98" y="-167.2" font-family="Times,serif" font-size="14.00">3</text>
</g>
<!-- 5 -->
<g id="node6" class="node">
<title>5</title>
<ellipse fill="none" stroke="black" cx="27" cy="-207" rx="27" ry="24.08"/>
<text text-anchor="middle" x="27" y="-200.8" font-family="Times,serif" font-size="24.00">5</text>
</g>
<!-- 2&#45;&#45;5 -->
<g id="edge12" class="edge">
<title>2&#45;&#45;5</title>
<path fill="none" stroke="#ffff00" stroke-width="2" d="M74.28,-136.11C64.27,-151.12 50.82,-171.29 40.82,-186.28"/>
<text text-anchor="middle" x="52.55" y="-164.99" font-family="Times,serif" font-size="14.00">3</text>
</g>
<!-- 3&#45;&#45;4 -->
<g id="edge8" class="edge">
<title>3&#45;&#45;4</title>
<path fill="none" stroke="#00ff81" stroke-width="2" d="M219.93,-220.69C203,-219.61 181.3,-218.22 164.35,-217.13"/>
<text text-anchor="middle" x="187.14" y="-222.71" font-family="Times,serif" font-size="14.00">2</text>
</g>
<!-- 4&#45;&#45;5 -->
<g id="edge11" class="edge">
<title>4&#45;&#45;5</title>
<path fill="none" stroke="#ffff00" stroke-width="2" d="M110.15,-213.33C93.09,-212.03 71.11,-210.36 54.03,-209.06"/>
<text text-anchor="middle" x="77.09" y="-214.99" font-family="Times,serif" font-size="14.00">3</text>
</g>
</g>
</svg>
