<?xml version="1.0" encoding="UTF-8" standalone="no"?>
<!DOCTYPE svg PUBLIC "-//W3C//DTD SVG 1.1//EN"
 "http://www.w3.org/Graphics/SVG/1.1/DTD/svg11.dtd">
<!-- Generated by graphviz version 2.43.0 (0)
 -->
<!-- Title: G Pages: 1 -->
<svg width="134pt" height="392pt"
 viewBox="0.00 0.00 134.00 392.42" xmlns="http://www.w3.org/2000/svg" xmlns:xlink="http://www.w3.org/1999/xlink">
<g id="graph0" class="graph" transform="scale(1 1) rotate(0) translate(4 388.42)">
<title>G</title>
<polygon fill="white" stroke="transparent" points="-4,4 -4,-388.42 130,-388.42 130,4 -4,4"/>
<!-- 0 -->
<g id="node1" class="node">
<title>0</title>
<ellipse fill="none" stroke="black" stroke-width="2" cx="63" cy="-360.37" rx="27" ry="24.08"/>
<text text-anchor="middle" x="63" y="-354.17" font-family="Times,serif" font-size="24.00">0</text>
</g>
<!-- 1 -->
<g id="node2" class="node">
<title>1</title>
<ellipse fill="none" stroke="black" cx="63" cy="-276.29" rx="27" ry="24.08"/>
<text text-anchor="middle" x="63" y="-270.09" font-family="Times,serif" font-size="24.00">1</text>
</g>
<!-- 0&#45;&gt;1 -->
<g id="edge1" class="edge">
<title>0&#45;&gt;1</title>
<path fill="none" stroke="black" d="M63,-336.07C63,-328.12 63,-319.07 63,-310.49"/>
<polygon fill="black" stroke="black" points="66.5,-310.37 63,-300.37 59.5,-310.37 66.5,-310.37"/>
</g>
<!-- 2 -->
<g id="node3" class="node">
<title>2</title>
<ellipse fill="none" stroke="black" cx="63" cy="-192.21" rx="27" ry="24.08"/>
<text text-anchor="middle" x="63" y="-186.01" font-family="Times,serif" font-size="24.00">2</text>
</g>
<!-- 1&#45;&gt;2 -->
<g id="edge2" class="edge">
<title>1&#45;&gt;2</title>
<path fill="none" stroke="black" d="M63,-251.99C63,-244.04 63,-234.98 63,-226.41"/>
<polygon fill="black" stroke="black" points="66.5,-226.28 63,-216.28 59.5,-226.28 66.5,-226.28"/>
</g>
<!-- 3 -->
<g id="node4" class="node">
<title>3</title>
<ellipse fill="none" stroke="black" cx="27" cy="-108.12" rx="27" ry="24.08"/>
<text text-anchor="middle" x="27" y="-101.92" font-family="Times,serif" font-size="24.00">3</text>
</g>
<!-- 2&#45;&gt;3 -->
<g id="edge3" class="edge">
<title>2&#45;&gt;3</title>
<path fill="none" stroke="black" d="M53.54,-169.64C49.6,-160.66 44.96,-150.07 40.66,-140.27"/>
<polygon fill="black" stroke="black" points="43.74,-138.58 36.52,-130.83 37.33,-141.4 43.74,-138.58"/>
</g>
<!-- 5 -->
<g id="node6" class="node">
<title>5</title>
<ellipse fill="none" stroke="black" cx="99" cy="-108.12" rx="27" ry="24.08"/>
<text text-anchor="middle" x="99" y="-101.92" font-family="Times,serif" font-size="24.00">7</text>
</g>
<!-- 2&#45;&gt;5 -->
<g id="edge4" class="edge">
<title>2&#45;&gt;5</title>
<path fill="none" stroke="black" d="M72.46,-169.64C76.4,-160.66 81.04,-150.07 85.34,-140.27"/>
<polygon fill="black" stroke="black" points="88.67,-141.4 89.48,-130.83 82.26,-138.58 88.67,-141.4"/>
</g>
<!-- 4 -->
<g id="node5" class="node">
<title>4</title>
<ellipse fill="none" stroke="black" cx="27" cy="-24.04" rx="27" ry="24.08"/>
<text text-anchor="middle" x="27" y="-17.84" font-family="Times,serif" font-size="24.00">4</text>
</g>
<!-- 3&#45;&gt;4 -->
<g id="edge5" class="edge">
<title>3&#45;&gt;4</title>
<path fill="none" stroke="black" d="M27,-83.82C27,-75.87 27,-66.82 27,-58.24"/>
<polygon fill="black" stroke="black" points="30.5,-58.12 27,-48.12 23.5,-58.12 30.5,-58.12"/>
</g>
<!-- 6 -->
<g id="node7" class="node">
<title>6</title>
<ellipse fill="none" stroke="black" cx="99" cy="-24.04" rx="27" ry="24.08"/>
<text text-anchor="middle" x="99" y="-17.84" font-family="Times,serif" font-size="24.00">5</text>
</g>
<!-- 5&#45;&gt;6 -->
<g id="edge6" class="edge">
<title>5&#45;&gt;6</title>
<path fill="none" stroke="black" d="M99,-83.82C99,-75.87 99,-66.82 99,-58.24"/>
<polygon fill="black" stroke="black" points="102.5,-58.12 99,-48.12 95.5,-58.12 102.5,-58.12"/>
</g>
</g>
</svg>
