<?xml version="1.0" encoding="UTF-8" standalone="no"?>
<!DOCTYPE svg PUBLIC "-//W3C//DTD SVG 1.1//EN"
 "http://www.w3.org/Graphics/SVG/1.1/DTD/svg11.dtd">
<!-- Generated by graphviz version 2.43.0 (0)
 -->
<!-- Title: G Pages: 1 -->
<svg width="62pt" height="392pt"
 viewBox="0.00 0.00 62.00 392.42" xmlns="http://www.w3.org/2000/svg" xmlns:xlink="http://www.w3.org/1999/xlink">
<g id="graph0" class="graph" transform="scale(1 1) rotate(0) translate(4 388.42)">
<title>G</title>
<polygon fill="white" stroke="transparent" points="-4,4 -4,-388.42 58,-388.42 58,4 -4,4"/>
<!-- 0 -->
<g id="node1" class="node">
<title>0</title>
<ellipse fill="none" stroke="black" stroke-width="2" cx="27" cy="-360.37" rx="27" ry="24.08"/>
<text text-anchor="middle" x="27" y="-354.17" font-family="Times,serif" font-size="24.00">0</text>
</g>
<!-- 1 -->
<g id="node2" class="node">
<title>1</title>
<ellipse fill="none" stroke="black" cx="27" cy="-276.29" rx="27" ry="24.08"/>
<text text-anchor="middle" x="27" y="-270.09" font-family="Times,serif" font-size="24.00">1</text>
</g>
<!-- 0&#45;&gt;1 -->
<g id="edge1" class="edge">
<title>0&#45;&gt;1</title>
<path fill="none" stroke="black" d="M27,-336.07C27,-328.12 27,-319.07 27,-310.49"/>
<polygon fill="black" stroke="black" points="30.5,-310.37 27,-300.37 23.5,-310.37 30.5,-310.37"/>
</g>
<!-- 2 -->
<g id="node3" class="node">
<title>2</title>
<ellipse fill="none" stroke="black" cx="27" cy="-192.21" rx="27" ry="24.08"/>
<text text-anchor="middle" x="27" y="-186.01" font-family="Times,serif" font-size="24.00">2</text>
</g>
<!-- 1&#45;&gt;2 -->
<g id="edge2" class="edge">
<title>1&#45;&gt;2</title>
<path fill="none" stroke="black" d="M27,-251.99C27,-244.04 27,-234.98 27,-226.41"/>
<polygon fill="black" stroke="black" points="30.5,-226.28 27,-216.28 23.5,-226.28 30.5,-226.28"/>
</g>
<!-- 3 -->
<g id="node4" class="node">
<title>3</title>
<ellipse fill="none" stroke="black" cx="27" cy="-108.12" rx="27" ry="24.08"/>
<text text-anchor="middle" x="27" y="-101.92" font-family="Times,serif" font-size="24.00">3</text>
</g>
<!-- 2&#45;&gt;3 -->
<g id="edge3" class="edge">
<title>2&#45;&gt;3</title>
<path fill="none" stroke="black" d="M27,-167.91C27,-159.95 27,-150.9 27,-142.32"/>
<polygon fill="black" stroke="black" points="30.5,-142.2 27,-132.2 23.5,-142.2 30.5,-142.2"/>
</g>
<!-- 4 -->
<g id="node5" class="node">
<title>4</title>
<ellipse fill="none" stroke="black" cx="27" cy="-24.04" rx="27" ry="24.08"/>
<text text-anchor="middle" x="27" y="-17.84" font-family="Times,serif" font-size="24.00">4</text>
</g>
<!-- 3&#45;&gt;4 -->
<g id="edge4" class="edge">
<title>3&#45;&gt;4</title>
<path fill="none" stroke="black" d="M27,-83.82C27,-75.87 27,-66.82 27,-58.24"/>
<polygon fill="black" stroke="black" points="30.5,-58.12 27,-48.12 23.5,-58.12 30.5,-58.12"/>
</g>
</g>
</svg>
